<?xml version="1.0" standalone="no"?>
<!DOCTYPE svg PUBLIC "-//W3C//DTD SVG 20010904//EN"
 "http://www.w3.org/TR/2001/REC-SVG-20010904/DTD/svg10.dtd">
<svg version="1.0" xmlns="http://www.w3.org/2000/svg"
 width="500.000000pt" height="500.000000pt" viewBox="0 0 500.000000 500.000000"
 preserveAspectRatio="xMidYMid meet">

<g transform="translate(0.000000,500.000000) scale(0.100000,-0.100000)"
fill="#000000" stroke="none">
<path d="M2145 2740 c-32 -11 -44 -20 -35 -23 197 -76 199 -76 253 -60 29 8
56 18 60 22 8 8 -187 82 -213 80 -8 0 -37 -9 -65 -19z"/>
<path d="M1993 2691 c-29 -8 -53 -18 -53 -21 0 -3 47 -23 103 -46 l103 -41 57
21 c31 11 57 23 57 27 0 7 -196 80 -208 78 -4 -1 -31 -9 -59 -18z"/>
<path d="M2417 2648 c-32 -11 -57 -21 -55 -23 2 -1 54 -21 117 -45 l115 -43
53 18 c30 10 56 22 58 26 4 5 -159 67 -220 85 -5 1 -36 -7 -68 -18z"/>
<path d="M1820 2637 l-65 -20 70 -32 c131 -60 136 -61 205 -40 33 10 63 22 65
25 4 6 -120 58 -195 83 -8 3 -44 -4 -80 -16z"/>
<path d="M2248 2592 c-27 -8 -48 -19 -48 -22 0 -15 221 -92 248 -87 33 7 106
37 101 42 -10 9 -224 85 -238 84 -9 0 -37 -8 -63 -17z"/>
<path d="M1632 2579 c-35 -11 -62 -22 -60 -23 1 -2 49 -24 106 -49 l103 -46
57 20 c31 10 64 22 72 25 15 5 -179 95 -203 93 -7 0 -41 -9 -75 -20z"/>
<path d="M2703 2547 c-29 -12 -53 -24 -53 -27 0 -3 58 -27 128 -53 l129 -48
58 26 c32 14 56 27 54 30 -5 4 -260 96 -263 94 0 -1 -25 -11 -53 -22z"/>
<path d="M2078 2532 c-26 -9 -49 -20 -53 -23 -3 -4 46 -28 109 -54 l115 -47
66 23 c36 12 65 25 65 28 0 10 -214 91 -235 90 -11 0 -41 -8 -67 -17z"/>
<path d="M1435 2517 l-69 -22 108 -50 107 -49 77 26 77 25 -90 42 c-49 24
-101 44 -115 46 -14 2 -56 -6 -95 -18z"/>
<path d="M3101 2516 c2 -2 50 -20 107 -41 100 -35 104 -36 130 -19 14 9 51 27
81 40 l56 23 -189 1 c-104 0 -187 -2 -185 -4z"/>
<path d="M2533 2482 c-23 -9 -44 -20 -47 -23 -3 -3 52 -29 123 -57 l129 -51
67 27 c50 20 62 28 48 33 -264 100 -253 98 -320 71z"/>
<path d="M1887 2468 c-32 -11 -56 -22 -53 -25 18 -18 205 -93 232 -93 18 0 58
10 88 22 l57 21 -113 49 c-61 26 -121 48 -132 47 -12 0 -47 -10 -79 -21z"/>
<path d="M3014 2432 c-32 -13 -60 -25 -62 -27 -1 -1 31 -14 71 -29 67 -25 83
-26 204 -24 l131 3 -142 50 -142 51 -60 -24z"/>
<path d="M2358 2417 c-32 -12 -58 -24 -58 -27 0 -4 22 -14 48 -23 38 -14 75
-17 177 -15 l129 3 -107 43 c-60 23 -113 42 -120 41 -7 0 -38 -10 -69 -22z"/>
<path d="M1701 2403 c-68 -23 -73 -27 -56 -39 14 -10 56 -14 159 -13 l141 1
-84 39 c-46 21 -84 39 -85 38 0 0 -34 -12 -75 -26z"/>
<path d="M2865 2370 l-40 -19 90 1 c82 0 87 1 60 13 -54 23 -69 24 -110 5z"/>
<path d="M2210 2360 c-11 -7 1 -10 40 -10 39 0 51 3 40 10 -8 5 -26 10 -40 10
-14 0 -32 -5 -40 -10z"/>
<path d="M2068 1608 c-20 -87 -22 -104 -10 -106 20 -5 27 9 47 102 10 44 20
87 22 94 3 7 -3 12 -15 12 -18 0 -24 -14 -44 -102z"/>
<path d="M1766 1669 c-15 -12 -26 -30 -26 -45 0 -20 9 -29 46 -44 39 -17 44
-23 34 -35 -16 -19 -49 -19 -56 0 -7 16 -39 21 -48 7 -3 -5 2 -18 10 -30 34
-49 149 -12 142 47 -2 21 -12 29 -45 41 -47 16 -55 35 -21 46 14 4 25 1 33
-10 17 -23 45 -20 45 4 0 41 -71 53 -114 19z"/>
<path d="M2485 1608 c-10 -46 -20 -89 -22 -95 -4 -10 10 -13 51 -13 49 0 56 2
56 20 0 16 -7 20 -31 20 -44 0 -36 33 10 40 45 7 54 30 12 30 -24 0 -31 4 -31
20 0 16 7 20 34 20 29 0 46 13 46 36 0 2 -24 4 -54 4 l-53 0 -18 -82z"/>
<path d="M1914 1595 c-53 -53 -6 -115 64 -86 26 11 52 46 52 71 0 18 -33 40
-61 40 -19 0 -39 -10 -55 -25z m72 -20 c8 -20 -13 -45 -37 -45 -13 0 -19 7
-19 23 0 13 3 27 7 30 12 13 44 7 49 -8z"/>
<path d="M2162 1613 c-20 -8 -44 -62 -37 -83 7 -23 33 -30 89 -27 39 2 40 2
52 57 7 30 13 56 14 56 1 4 -107 1 -118 -3z m63 -33 c10 -16 -14 -50 -35 -50
-14 0 -20 7 -20 23 0 13 3 27 7 30 10 10 41 8 48 -3z"/>
<path d="M2306 1582 c-3 -20 -9 -47 -12 -59 -5 -18 -2 -23 13 -23 14 0 22 10
29 38 6 23 17 41 31 47 41 18 35 33 -11 33 -42 0 -44 -1 -50 -36z"/>
<path d="M2624 1592 c-3 -15 -10 -42 -14 -59 -7 -28 -6 -33 10 -33 13 0 22 13
32 42 8 27 20 44 32 46 17 4 18 -1 12 -42 -7 -41 -5 -46 12 -46 16 0 21 9 27
50 4 27 4 54 1 59 -4 5 -29 10 -56 9 -46 0 -51 -2 -56 -26z"/>
<path d="M2785 1595 c-14 -13 -25 -33 -25 -44 0 -49 68 -68 111 -31 l24 20
-44 -3 c-28 -1 -45 3 -48 11 -3 8 10 12 46 12 42 0 51 3 51 18 0 47 -74 58
-115 17z m75 -10 c0 -9 -9 -15 -25 -15 -24 0 -32 10 -18 23 12 13 43 7 43 -8z"/>
<path d="M2932 1569 c-16 -66 -15 -69 8 -69 14 0 20 7 20 23 0 28 26 67 46 67
8 0 14 6 14 14 0 9 -13 14 -38 14 -38 1 -39 0 -50 -49z"/>
<path d="M3051 1596 c-43 -45 -18 -104 39 -92 28 5 30 4 20 -15 -14 -26 -38
-35 -53 -20 -15 15 -50 14 -45 -1 3 -7 16 -19 30 -27 21 -12 30 -12 57 -1 17
7 37 22 43 33 9 17 37 118 38 138 0 4 -24 7 -54 8 -43 0 -57 -4 -75 -23z m75
-21 c7 -18 -13 -45 -33 -45 -19 0 -28 27 -13 45 16 19 39 19 46 0z"/>
<path d="M3200 1612 c0 -5 5 -34 11 -65 9 -52 8 -60 -12 -88 l-22 -31 23 4
c17 2 38 28 78 91 30 49 52 91 48 94 -11 12 -37 -8 -53 -41 -19 -42 -33 -38
-33 10 0 27 -4 34 -20 34 -11 0 -20 -4 -20 -8z"/>
</g>
</svg>
